<?xml version="1.0" standalone="no"?>
<!DOCTYPE svg PUBLIC "-//W3C//DTD SVG 20010904//EN"
 "http://www.w3.org/TR/2001/REC-SVG-20010904/DTD/svg10.dtd">
<svg version="1.0" xmlns="http://www.w3.org/2000/svg"
 width="400.000000pt" height="400.000000pt" viewBox="0 0 400.000000 400.000000"
 preserveAspectRatio="xMidYMid meet">
<metadata>
Created by potrace 1.14, written by Peter Selinger 2001-2017
</metadata>
<g transform="translate(0.000000,400.000000) scale(0.100000,-0.100000)"
fill="#000000" stroke="none">
<path d="M2017 3794 c-3 -6 -9 -26 -12 -45 -5 -30 -30 -155 -40 -199 -6 -25
-65 -314 -69 -335 -4 -20 -94 -454 -102 -490 -2 -11 -7 -33 -9 -50 -3 -16 -8
-37 -10 -45 -2 -8 -7 -31 -10 -50 -3 -19 -8 -42 -10 -50 -2 -8 -7 -28 -10 -45
-28 -149 -27 -147 -74 -161 -24 -7 -58 -15 -75 -17 -17 -3 -90 -19 -163 -36
-72 -17 -143 -32 -157 -35 -15 -3 -34 -7 -44 -10 -9 -3 -30 -8 -47 -11 -42 -8
-242 -53 -310 -69 -5 -2 -28 -6 -50 -10 -22 -5 -67 -15 -100 -23 -33 -8 -71
-17 -85 -19 -14 -3 -33 -7 -42 -10 -10 -3 -30 -7 -45 -10 -16 -3 -57 -12 -93
-20 -36 -9 -76 -18 -90 -21 -14 -3 -32 -6 -40 -8 -8 -2 -22 -4 -30 -5 -15 -2
63 -26 110 -34 14 -2 210 -46 435 -96 442 -100 518 -117 668 -149 54 -11 105
-24 113 -29 11 -6 -34 -55 -178 -192 -105 -102 -208 -201 -228 -220 -20 -19
-107 -102 -193 -184 -86 -83 -155 -151 -153 -153 3 -3 100 32 161 58 53 23
728 279 742 281 17 3 27 -23 38 -92 5 -34 11 -65 20 -105 10 -44 124 -594 131
-635 5 -21 30 -141 39 -180 2 -8 4 -25 4 -37 2 -40 19 -24 26 24 5 27 9 53 11
58 3 14 64 306 80 385 7 36 15 74 17 85 3 11 8 38 12 60 5 22 9 45 11 50 1 6
16 80 34 165 46 227 48 233 68 225 9 -4 55 -22 102 -39 391 -149 469 -179 495
-190 17 -7 55 -22 85 -34 30 -11 91 -34 134 -51 44 -17 81 -30 83 -28 2 2 -34
39 -79 82 -46 43 -175 167 -288 276 -113 108 -250 240 -305 292 -70 67 -96 97
-85 101 12 4 1031 232 1125 252 11 2 65 14 120 26 l100 22 -55 13 c-30 7 -73
17 -95 22 -135 29 -332 73 -345 76 -61 15 -149 35 -170 39 -14 2 -54 11 -90
19 -36 8 -148 33 -250 56 -301 67 -421 96 -420 101 1 3 -3 17 -8 31 -6 14 -13
43 -16 63 -4 21 -13 68 -21 104 -8 37 -17 78 -19 92 -3 14 -9 45 -14 70 -6 25
-24 113 -41 195 -17 83 -40 195 -52 250 -26 129 -28 135 -34 165 -7 29 -24
114 -30 150 -3 14 -7 34 -9 45 -2 11 -16 79 -31 150 -32 160 -30 151 -38 139z"/>
</g>
</svg>
